<?xml version="1.0" encoding="utf-8"?>
<!-- Generator: Adobe Illustrator 20.1.0, SVG Export Plug-In . SVG Version: 6.00 Build 0)  -->
<svg version="1.1" id="Ebene_1" xmlns="http://www.w3.org/2000/svg" xmlns:xlink="http://www.w3.org/1999/xlink" x="0px" y="0px"
	 viewBox="0 0 367.6 314.7" style="enable-background:new 0 0 367.6 314.7;" xml:space="preserve">
<style type="text/css">
	.st0{fill:#008F89;}
	.st1{fill:#5F5E5E;}
</style>
<title>logo-jellix</title>
<rect x="203.3" y="68.8" class="st0" width="23.4" height="71.1"/>
<rect x="167.8" y="58.8" class="st0" width="23.4" height="81.1"/>
<rect x="238.8" y="79.6" class="st0" width="23.4" height="60.3"/>
<rect x="274.3" y="90.5" class="st0" width="23.5" height="49.3"/>
<rect x="309.9" y="105.2" class="st0" width="23.5" height="34.6"/>
<rect x="132.2" y="68.8" class="st0" width="23.5" height="71.1"/>
<rect x="96.7" y="79.6" class="st0" width="23.4" height="60.3"/>
<rect x="61.2" y="90.5" class="st0" width="23.4" height="49.3"/>
<rect x="25.7" y="105.2" class="st0" width="23.5" height="34.6"/>
<path class="st1" d="M25.6,240.3c3,1.1,6.1,1.7,9.3,1.7c12.7,0,12.7-10.2,12.7-17.1v-64.7h19.5v74.1c0,10.3-6.7,24.8-26.6,24.8
	c-5,0.1-10-0.5-14.9-1.8L25.6,240.3z"/>
<path class="st1" d="M136.7,253.2c-6.4,3.8-13.8,5.7-23.3,5.7c-22.3,0-35.3-13.6-35.3-37.2c0-20.7,10.4-37.9,31.4-37.9
	c25.1,0,32.2,18.2,32.2,43.3H94.9c0.8,11.6,8.4,18.1,19.3,18.1c8.6,0,15.9-3.3,22.5-7.2L136.7,253.2z M124.8,214.4
	c-0.5-9-4.5-16.8-14.3-16.8s-14.9,7.2-15.7,16.8H124.8z"/>
<path class="st1" d="M151.8,152.8h18.6v104.4h-18.6V152.8z"/>
<path class="st1" d="M188.5,152.8h18.6v104.4h-18.6V152.8z"/>
<path class="st1" d="M226.2,154.7h18.6v17.8h-18.6V154.7z M226.2,185.6h18.6v71.7h-18.6V185.6z"/>
<polygon class="st1" points="308.8,219.7 333,257.3 310.8,257.3 294.8,230.5 278.6,257.3 258.2,257.3 282.8,219.7 258.2,185.9 
	278.6,185.9 294.8,209.9 310.8,185.9 333,185.9 "/>
</svg>
